<svg width="26" height="159" viewBox="0 0 26 159" fill="none" xmlns="http://www.w3.org/2000/svg">
<g id="Component 1" opacity="0.75">
<path id="Vector" d="M14.35 12.075H16.975L18.025 7.875H14.35V5.775C14.35 4.6935 14.35 3.675 16.45 3.675H18.025V0.147C17.6827 0.10185 16.3901 0 15.0251 0C12.1744 0 10.15 1.73985 10.15 4.935V7.875H7V12.075H10.15V21H14.35V12.075Z" fill="white"/>
<path id="Vector_2" d="M13.5 138C16.3526 138 16.7088 138.01 17.8285 138.063C18.9465 138.115 19.7076 138.291 20.3779 138.551C21.0701 138.818 21.6547 139.179 22.2385 139.762C22.7719 140.287 23.1852 140.922 23.4489 141.622C23.7085 142.291 23.8849 143.054 23.937 144.172C23.9865 145.291 24 145.647 24 148.5C24 151.353 23.9899 151.709 23.937 152.828C23.8849 153.946 23.7085 154.708 23.4489 155.377C23.186 156.079 22.7727 156.714 22.2385 157.238C21.7127 157.772 21.0785 158.185 20.3779 158.449C19.7084 158.708 18.9465 158.884 17.8285 158.937C16.7088 158.986 16.3526 159 13.5 159C10.6474 159 10.2912 158.989 9.17147 158.937C8.05343 158.884 7.29239 158.708 6.62207 158.449C5.92151 158.186 5.28648 157.772 4.76148 157.238C4.22808 156.713 3.8148 156.078 3.55104 155.377C3.29064 154.709 3.11508 153.946 3.063 152.828C3.01344 151.709 3 151.353 3 148.5C3 145.647 3.01008 145.291 3.063 144.172C3.11508 143.053 3.29064 142.292 3.55104 141.622C3.81396 140.921 4.22724 140.286 4.76148 139.762C5.28648 139.228 5.92151 138.815 6.62207 138.551C7.29239 138.291 8.05259 138.115 9.17147 138.063C10.2912 138.014 10.6474 138 13.5 138ZM13.5 143.25C12.1073 143.25 10.7725 143.803 9.78803 144.788C8.80271 145.772 8.24999 147.108 8.24999 148.5C8.24999 149.892 8.80271 151.228 9.78803 152.212C10.7725 153.197 12.1073 153.75 13.5 153.75C14.8927 153.75 16.2275 153.197 17.2119 152.212C18.1973 151.228 18.75 149.892 18.75 148.5C18.75 147.108 18.1973 145.772 17.2119 144.788C16.2275 143.803 14.8927 143.25 13.5 143.25ZM20.325 142.987C20.325 142.639 20.1864 142.306 19.9403 142.059C19.6941 141.813 19.3607 141.675 19.0121 141.675C18.6643 141.675 18.3308 141.813 18.0847 142.059C17.8386 142.306 17.7 142.639 17.7 142.987C17.7 143.336 17.8386 143.669 18.0847 143.916C18.3308 144.162 18.6643 144.3 19.0121 144.3C19.3607 144.3 19.6941 144.162 19.9403 143.916C20.1864 143.669 20.325 143.336 20.325 142.987ZM13.5 145.35C14.3358 145.35 15.1363 145.682 15.7277 146.273C16.3182 146.863 16.65 147.665 16.65 148.5C16.65 149.335 16.3182 150.137 15.7277 150.727C15.1363 151.318 14.3358 151.65 13.5 151.65C12.6642 151.65 11.8637 151.318 11.2723 150.727C10.6818 150.137 10.35 149.335 10.35 148.5C10.35 147.665 10.6818 146.863 11.2723 146.273C11.8637 145.682 12.6642 145.35 13.5 145.35Z" fill="white"/>
<path id="Vector_3" d="M25.8271 71.4929C24.8597 71.9208 23.8338 72.2018 22.7835 72.3267C23.8906 71.6645 24.7192 70.6225 25.1149 69.3946C24.0759 70.013 22.9368 70.4463 21.7495 70.6807C20.952 69.8274 19.895 69.2615 18.7427 69.071C17.5903 68.8805 16.4075 69.076 15.3777 69.6271C14.348 70.1782 13.5292 71.0541 13.0486 72.1186C12.568 73.1831 12.4526 74.3765 12.7203 75.5134C10.6132 75.4078 8.55195 74.8602 6.67027 73.9063C4.78859 72.9524 3.12858 71.6134 1.79802 69.9762C1.32703 70.7852 1.07948 71.7048 1.08083 72.6409C1.08083 74.4782 2.01591 76.1013 3.43761 77.0516C2.59627 77.0251 1.77349 76.7979 1.03774 76.3889V76.4548C1.03799 77.6785 1.46143 78.8644 2.23625 79.8114C3.01098 80.7585 4.08954 81.4085 5.28881 81.6512C4.50777 81.8628 3.68886 81.894 2.89405 81.7424C3.23215 82.7957 3.89122 83.7168 4.77893 84.3768C5.66664 85.0369 6.73856 85.4028 7.8445 85.4233C6.74528 86.2866 5.48671 86.9248 4.1407 87.3013C2.79468 87.6779 1.3876 87.7854 0 87.6178C2.42231 89.1757 5.24202 90.0027 8.12204 90C17.8697 90 23.2004 81.9248 23.2004 74.9217C23.2004 74.6936 23.194 74.463 23.1839 74.2374C24.2215 73.4875 25.1169 72.5586 25.8283 71.4942L25.8271 71.4929Z" fill="white"/>
</g>
</svg>
