<svg width="42" height="42" viewBox="0 0 42 42" fill="none" xmlns="http://www.w3.org/2000/svg">
<path id="Vector" d="M17.685 13.7805L17.6852 13.7806L27.8498 20.5556L27.8501 20.5558C27.8958 20.5863 27.9333 20.6275 27.9592 20.6759C27.9852 20.7243 27.9987 20.7784 27.9987 20.8333C27.9987 20.8883 27.9852 20.9423 27.9592 20.9907C27.9333 21.0392 27.8958 21.0804 27.8501 21.1108L27.8498 21.111L17.6842 27.8853C17.684 27.8855 17.6838 27.8856 17.6836 27.8857C17.6336 27.9187 17.5756 27.9376 17.5157 27.9405C17.4556 27.9433 17.3959 27.9298 17.3428 27.9015L17.1071 28.3424L17.3428 27.9015C17.2898 27.8731 17.2454 27.8309 17.2144 27.7794L16.786 28.0371L17.2144 27.7794C17.1835 27.728 17.167 27.6693 17.1667 27.6095V14.0572C17.1668 13.9969 17.1832 13.9378 17.2143 13.8861C17.2454 13.8344 17.2899 13.7921 17.343 13.7637C17.3962 13.7353 17.4561 13.7219 17.5163 13.7249C17.5766 13.7278 17.6348 13.747 17.685 13.7805ZM20.8333 41.1667C9.60323 41.1667 0.5 32.0634 0.5 20.8333C0.5 9.60323 9.60323 0.5 20.8333 0.5C32.0634 0.5 41.1667 9.60323 41.1667 20.8333C41.1667 32.0634 32.0634 41.1667 20.8333 41.1667ZM20.8333 38C25.3862 38 29.7526 36.1914 32.972 32.972C36.1914 29.7526 38 25.3862 38 20.8333C38 16.2805 36.1914 11.914 32.972 8.69467C29.7526 5.47529 25.3862 3.66667 20.8333 3.66667C16.2805 3.66667 11.914 5.47529 8.69467 8.69467C5.47529 11.914 3.66667 16.2805 3.66667 20.8333C3.66667 25.3862 5.47529 29.7526 8.69467 32.972C11.914 36.1914 16.2805 38 20.8333 38Z" fill="white" stroke="black"/>
</svg>
